<mxfile host="app.diagrams.net" modified="2021-11-25T22:29:03.472Z" agent="5.0 (Windows NT 10.0; Win64; x64) AppleWebKit/537.36 (KHTML, like Gecko) Chrome/96.0.4664.45 Safari/537.36" etag="9H5rOGX_QaCPguOZbVJo" version="15.8.3" type="github">
  <diagram id="ylAyNTXU45JpMREwfZHR" name="Page-1">
    <mxGraphModel dx="1483" dy="767" grid="1" gridSize="10" guides="1" tooltips="1" connect="1" arrows="1" fold="1" page="1" pageScale="1" pageWidth="850" pageHeight="1100" math="0" shadow="0">
      <root>
        <mxCell id="0" />
        <mxCell id="1" parent="0" />
        <mxCell id="u21SFyGaTdQSeciqFoYo-2" value="" style="ellipse;html=1;shape=startState;fillColor=#000000;strokeColor=#ff0000;" parent="1" vertex="1">
          <mxGeometry x="40" y="50" width="30" height="30" as="geometry" />
        </mxCell>
        <mxCell id="u21SFyGaTdQSeciqFoYo-3" value="" style="edgeStyle=orthogonalEdgeStyle;html=1;verticalAlign=bottom;endArrow=open;endSize=8;strokeColor=#000000;rounded=0;" parent="1" source="u21SFyGaTdQSeciqFoYo-2" edge="1">
          <mxGeometry relative="1" as="geometry">
            <mxPoint x="150" y="65" as="targetPoint" />
          </mxGeometry>
        </mxCell>
        <mxCell id="u21SFyGaTdQSeciqFoYo-5" value="" style="edgeStyle=orthogonalEdgeStyle;html=1;verticalAlign=bottom;endArrow=open;endSize=8;strokeColor=#000000;rounded=0;" parent="1" edge="1">
          <mxGeometry relative="1" as="geometry">
            <mxPoint x="380" y="64" as="targetPoint" />
            <mxPoint x="280" y="64.29" as="sourcePoint" />
            <Array as="points">
              <mxPoint x="280" y="64.29" />
              <mxPoint x="280" y="64.29" />
            </Array>
          </mxGeometry>
        </mxCell>
        <mxCell id="u21SFyGaTdQSeciqFoYo-6" value="" style="edgeStyle=orthogonalEdgeStyle;html=1;verticalAlign=bottom;endArrow=open;endSize=8;strokeColor=#000000;rounded=0;" parent="1" edge="1">
          <mxGeometry relative="1" as="geometry">
            <mxPoint x="630" y="64" as="targetPoint" />
            <mxPoint x="590" y="64" as="sourcePoint" />
            <Array as="points">
              <mxPoint x="540" y="64.29" />
              <mxPoint x="540" y="64.29" />
            </Array>
          </mxGeometry>
        </mxCell>
        <mxCell id="u21SFyGaTdQSeciqFoYo-10" value="" style="edgeStyle=orthogonalEdgeStyle;html=1;verticalAlign=bottom;endArrow=open;endSize=8;strokeColor=#000000;rounded=0;entryX=0.359;entryY=-0.075;entryDx=0;entryDy=0;entryPerimeter=0;" parent="1" target="R9mxItDzNMSXBVZuEwp5-31" edge="1">
          <mxGeometry relative="1" as="geometry">
            <mxPoint x="1080.0800000000002" y="260" as="targetPoint" />
            <mxPoint x="401" y="240" as="sourcePoint" />
            <Array as="points" />
          </mxGeometry>
        </mxCell>
        <mxCell id="u21SFyGaTdQSeciqFoYo-14" value="" style="rhombus;whiteSpace=wrap;html=1;" parent="1" vertex="1">
          <mxGeometry x="380" y="570" width="80" height="80" as="geometry" />
        </mxCell>
        <mxCell id="u21SFyGaTdQSeciqFoYo-58" value="" style="edgeStyle=orthogonalEdgeStyle;html=1;verticalAlign=bottom;endArrow=open;endSize=8;strokeColor=#000000;rounded=0;exitX=1;exitY=0.5;exitDx=0;exitDy=0;entryX=1;entryY=0.5;entryDx=0;entryDy=0;" parent="1" target="R9mxItDzNMSXBVZuEwp5-29" edge="1" source="u21SFyGaTdQSeciqFoYo-14">
          <mxGeometry relative="1" as="geometry">
            <mxPoint x="660" y="500" as="targetPoint" />
            <mxPoint x="1400" y="640" as="sourcePoint" />
            <Array as="points">
              <mxPoint x="710" y="610" />
              <mxPoint x="710" y="480" />
            </Array>
          </mxGeometry>
        </mxCell>
        <mxCell id="_sdeYMEwhturCp9GIaWW-1" value="" style="html=1;points=[];perimeter=orthogonalPerimeter;fillColor=#000000;strokeColor=none;direction=north;" parent="1" vertex="1">
          <mxGeometry x="125" y="230" width="700" height="8.33" as="geometry" />
        </mxCell>
        <mxCell id="_sdeYMEwhturCp9GIaWW-9" value="" style="endArrow=none;dashed=1;html=1;dashPattern=1 3;strokeWidth=2;rounded=0;exitX=1;exitY=0.25;exitDx=0;exitDy=0;" parent="1" edge="1">
          <mxGeometry width="50" height="50" relative="1" as="geometry">
            <mxPoint x="520" y="320" as="sourcePoint" />
            <mxPoint x="650" y="320.5" as="targetPoint" />
          </mxGeometry>
        </mxCell>
        <mxCell id="4C2LGKkIfeAoa_OK1MDI-2" value="" style="edgeStyle=orthogonalEdgeStyle;html=1;verticalAlign=bottom;endArrow=open;endSize=8;strokeColor=#000000;rounded=0;" parent="1" edge="1">
          <mxGeometry relative="1" as="geometry">
            <mxPoint x="240" y="400" as="targetPoint" />
            <mxPoint x="240" y="340" as="sourcePoint" />
            <Array as="points">
              <mxPoint x="240" y="364" />
              <mxPoint x="240" y="364" />
            </Array>
          </mxGeometry>
        </mxCell>
        <mxCell id="ZkyLK1sEt4H9wOnHN_3Q-2" value="" style="html=1;points=[];perimeter=orthogonalPerimeter;fillColor=#000000;strokeColor=none;direction=north;" parent="1" vertex="1">
          <mxGeometry x="125" y="400" width="700" height="8.33" as="geometry" />
        </mxCell>
        <mxCell id="ZkyLK1sEt4H9wOnHN_3Q-5" value="" style="edgeStyle=orthogonalEdgeStyle;html=1;verticalAlign=bottom;endArrow=open;endSize=8;strokeColor=#000000;rounded=0;exitX=0.5;exitY=1;exitDx=0;exitDy=0;entryX=1.017;entryY=0.877;entryDx=0;entryDy=0;entryPerimeter=0;" parent="1" edge="1" target="_sdeYMEwhturCp9GIaWW-1">
          <mxGeometry relative="1" as="geometry">
            <mxPoint x="740" y="196.67000000000002" as="targetPoint" />
            <mxPoint x="745" y="85" as="sourcePoint" />
            <Array as="points">
              <mxPoint x="740" y="85" />
              <mxPoint x="740" y="230" />
            </Array>
          </mxGeometry>
        </mxCell>
        <mxCell id="ZkyLK1sEt4H9wOnHN_3Q-8" value="" style="edgeStyle=orthogonalEdgeStyle;html=1;verticalAlign=bottom;endArrow=open;endSize=8;strokeColor=#000000;rounded=0;exitX=0.5;exitY=1;exitDx=0;exitDy=0;" parent="1" edge="1" source="R9mxItDzNMSXBVZuEwp5-29">
          <mxGeometry relative="1" as="geometry">
            <mxPoint x="420" y="570" as="targetPoint" />
            <mxPoint x="420" y="530" as="sourcePoint" />
            <Array as="points">
              <mxPoint x="420" y="520" />
            </Array>
          </mxGeometry>
        </mxCell>
        <mxCell id="ZkyLK1sEt4H9wOnHN_3Q-20" value="" style="edgeStyle=orthogonalEdgeStyle;html=1;verticalAlign=bottom;endArrow=open;endSize=8;strokeColor=#000000;rounded=0;exitX=0;exitY=0.5;exitDx=0;exitDy=0;" parent="1" edge="1" source="u21SFyGaTdQSeciqFoYo-14">
          <mxGeometry relative="1" as="geometry">
            <mxPoint x="249" y="610" as="targetPoint" />
            <mxPoint x="1160" y="834" as="sourcePoint" />
            <Array as="points">
              <mxPoint x="249" y="610" />
            </Array>
          </mxGeometry>
        </mxCell>
        <mxCell id="ZkyLK1sEt4H9wOnHN_3Q-22" value="" style="edgeStyle=orthogonalEdgeStyle;html=1;verticalAlign=bottom;endArrow=open;endSize=8;strokeColor=#000000;rounded=0;entryX=0;entryY=0.5;entryDx=0;entryDy=0;exitX=0.563;exitY=1;exitDx=0;exitDy=0;exitPerimeter=0;" parent="1" source="ZkyLK1sEt4H9wOnHN_3Q-26" target="ZkyLK1sEt4H9wOnHN_3Q-30" edge="1">
          <mxGeometry relative="1" as="geometry">
            <mxPoint x="890" y="1180" as="targetPoint" />
            <mxPoint x="420" y="930" as="sourcePoint" />
            <Array as="points">
              <mxPoint x="170" y="700" />
              <mxPoint x="410" y="700" />
            </Array>
          </mxGeometry>
        </mxCell>
        <mxCell id="ZkyLK1sEt4H9wOnHN_3Q-24" value="Calculate BMU" style="rounded=1;whiteSpace=wrap;html=1;arcSize=40;fontColor=#000000;fillColor=#FFFFFF;strokeColor=#000000;" parent="1" vertex="1">
          <mxGeometry x="90" y="590" width="160" height="40" as="geometry" />
        </mxCell>
        <mxCell id="ZkyLK1sEt4H9wOnHN_3Q-26" value="Calculate size of radius" style="rounded=1;whiteSpace=wrap;html=1;arcSize=40;fontColor=#000000;fillColor=#FFFFFF;strokeColor=#000000;" parent="1" vertex="1">
          <mxGeometry x="80" y="680" width="160" height="40" as="geometry" />
        </mxCell>
        <mxCell id="ZkyLK1sEt4H9wOnHN_3Q-30" value="&lt;br&gt;&lt;br&gt;&lt;span style=&quot;font-family: &amp;#34;helvetica&amp;#34;&quot;&gt;Tell node actors to calculate euclidean distance from BMU&lt;/span&gt;&lt;blockquote style=&quot;margin: 0 0 0 40px ; border: none ; padding: 0px&quot;&gt;&lt;/blockquote&gt;" style="rounded=1;whiteSpace=wrap;html=1;arcSize=40;fontColor=#000000;fillColor=#FFFFFF;strokeColor=#000000;" parent="1" vertex="1">
          <mxGeometry x="425" y="670" width="380" height="60" as="geometry" />
        </mxCell>
        <mxCell id="ZkyLK1sEt4H9wOnHN_3Q-31" value="" style="edgeStyle=orthogonalEdgeStyle;html=1;verticalAlign=bottom;endArrow=open;endSize=8;strokeColor=#000000;rounded=0;" parent="1" edge="1">
          <mxGeometry relative="1" as="geometry">
            <mxPoint x="600" y="790" as="targetPoint" />
            <mxPoint x="600" y="730" as="sourcePoint" />
            <Array as="points">
              <mxPoint x="600" y="780" />
              <mxPoint x="600" y="780" />
            </Array>
          </mxGeometry>
        </mxCell>
        <mxCell id="ZkyLK1sEt4H9wOnHN_3Q-32" value="" style="html=1;points=[];perimeter=orthogonalPerimeter;fillColor=#000000;strokeColor=none;direction=north;" parent="1" vertex="1">
          <mxGeometry x="140" y="790" width="710" height="8.33" as="geometry" />
        </mxCell>
        <mxCell id="ZkyLK1sEt4H9wOnHN_3Q-33" value="" style="edgeStyle=orthogonalEdgeStyle;html=1;verticalAlign=bottom;endArrow=open;endSize=8;strokeColor=#000000;rounded=0;" parent="1" edge="1">
          <mxGeometry relative="1" as="geometry">
            <mxPoint x="950" y="1340" as="targetPoint" />
            <mxPoint x="950" y="1310" as="sourcePoint" />
            <Array as="points">
              <mxPoint x="950" y="1310.33" />
              <mxPoint x="950" y="1310.33" />
            </Array>
          </mxGeometry>
        </mxCell>
        <mxCell id="ZkyLK1sEt4H9wOnHN_3Q-37" value="" style="edgeStyle=orthogonalEdgeStyle;html=1;verticalAlign=bottom;endArrow=open;endSize=8;strokeColor=#000000;rounded=0;" parent="1" edge="1">
          <mxGeometry relative="1" as="geometry">
            <mxPoint x="1160" y="1340" as="targetPoint" />
            <mxPoint x="1160" y="1330" as="sourcePoint" />
            <Array as="points">
              <mxPoint x="1159.5" y="1318.33" />
              <mxPoint x="1159.5" y="1440.33" />
            </Array>
          </mxGeometry>
        </mxCell>
        <mxCell id="ZkyLK1sEt4H9wOnHN_3Q-38" value="" style="endArrow=none;dashed=1;html=1;dashPattern=1 3;strokeWidth=2;rounded=0;" parent="1" edge="1">
          <mxGeometry width="50" height="50" relative="1" as="geometry">
            <mxPoint x="1260" y="1361" as="sourcePoint" />
            <mxPoint x="1430" y="1360.5" as="targetPoint" />
          </mxGeometry>
        </mxCell>
        <mxCell id="ZkyLK1sEt4H9wOnHN_3Q-41" value="" style="edgeStyle=orthogonalEdgeStyle;html=1;verticalAlign=bottom;endArrow=open;endSize=8;strokeColor=#000000;rounded=0;entryX=0.904;entryY=0.871;entryDx=0;entryDy=0;entryPerimeter=0;" parent="1" edge="1" target="ZkyLK1sEt4H9wOnHN_3Q-42">
          <mxGeometry relative="1" as="geometry">
            <mxPoint x="1490" y="1403.5" as="targetPoint" />
            <mxPoint x="1490" y="1390" as="sourcePoint" />
            <Array as="points" />
          </mxGeometry>
        </mxCell>
        <mxCell id="ZkyLK1sEt4H9wOnHN_3Q-42" value="" style="html=1;points=[];perimeter=orthogonalPerimeter;fillColor=#000000;strokeColor=none;direction=north;" parent="1" vertex="1">
          <mxGeometry x="880" y="1430" width="700" height="8.33" as="geometry" />
        </mxCell>
        <mxCell id="ZkyLK1sEt4H9wOnHN_3Q-44" value="" style="edgeStyle=orthogonalEdgeStyle;html=1;verticalAlign=bottom;endArrow=open;endSize=8;strokeColor=#000000;rounded=0;" parent="1" edge="1">
          <mxGeometry relative="1" as="geometry">
            <mxPoint x="1240" y="1540.0000000000002" as="targetPoint" />
            <mxPoint x="1240" y="1428.33" as="sourcePoint" />
            <Array as="points">
              <mxPoint x="1240.42" y="1448.33" />
              <mxPoint x="1240.42" y="1448.33" />
            </Array>
          </mxGeometry>
        </mxCell>
        <mxCell id="ZkyLK1sEt4H9wOnHN_3Q-45" value="Receive node distances from BMU" style="rounded=1;whiteSpace=wrap;html=1;arcSize=40;fontColor=#000000;fillColor=#FFFFFF;strokeColor=#000000;" parent="1" vertex="1">
          <mxGeometry x="1060" y="1540" width="350" height="40" as="geometry" />
        </mxCell>
        <mxCell id="ZkyLK1sEt4H9wOnHN_3Q-46" value="" style="rhombus;whiteSpace=wrap;html=1;" parent="1" vertex="1">
          <mxGeometry x="1205" y="1690" width="80" height="80" as="geometry" />
        </mxCell>
        <mxCell id="ZkyLK1sEt4H9wOnHN_3Q-47" value="" style="edgeStyle=orthogonalEdgeStyle;html=1;verticalAlign=bottom;endArrow=open;endSize=8;strokeColor=#000000;rounded=0;" parent="1" edge="1">
          <mxGeometry relative="1" as="geometry">
            <mxPoint x="1244.29" y="1691.67" as="targetPoint" />
            <mxPoint x="1244.29" y="1580" as="sourcePoint" />
            <Array as="points">
              <mxPoint x="1244.71" y="1600" />
              <mxPoint x="1244.71" y="1600" />
            </Array>
          </mxGeometry>
        </mxCell>
        <mxCell id="ZkyLK1sEt4H9wOnHN_3Q-52" value="" style="edgeStyle=orthogonalEdgeStyle;html=1;verticalAlign=bottom;endArrow=open;endSize=8;strokeColor=#000000;rounded=0;entryX=1;entryY=0.5;entryDx=0;entryDy=0;exitX=1;exitY=0.5;exitDx=0;exitDy=0;" parent="1" source="ZkyLK1sEt4H9wOnHN_3Q-46" target="ZkyLK1sEt4H9wOnHN_3Q-45" edge="1">
          <mxGeometry relative="1" as="geometry">
            <mxPoint x="1459.1999999999998" y="1585" as="targetPoint" />
            <mxPoint x="1460" y="1710" as="sourcePoint" />
            <Array as="points">
              <mxPoint x="1460" y="1730" />
              <mxPoint x="1460" y="1560" />
            </Array>
          </mxGeometry>
        </mxCell>
        <mxCell id="ZkyLK1sEt4H9wOnHN_3Q-58" value="" style="edgeStyle=orthogonalEdgeStyle;html=1;verticalAlign=bottom;endArrow=open;endSize=8;strokeColor=#000000;rounded=0;entryX=1;entryY=0.5;entryDx=0;entryDy=0;exitX=0;exitY=0.5;exitDx=0;exitDy=0;" parent="1" source="ZkyLK1sEt4H9wOnHN_3Q-46" target="ZkyLK1sEt4H9wOnHN_3Q-100" edge="1">
          <mxGeometry relative="1" as="geometry">
            <mxPoint x="1090" y="1640" as="targetPoint" />
            <mxPoint x="1140" y="1895" as="sourcePoint" />
            <Array as="points">
              <mxPoint x="1140" y="1730" />
              <mxPoint x="1140" y="1750" />
            </Array>
          </mxGeometry>
        </mxCell>
        <mxCell id="ZkyLK1sEt4H9wOnHN_3Q-59" value="Calculate learning rate" style="rounded=1;whiteSpace=wrap;html=1;arcSize=40;fontColor=#000000;fillColor=#FFFFFF;strokeColor=#000000;" parent="1" vertex="1">
          <mxGeometry x="840" y="1880" width="160" height="40" as="geometry" />
        </mxCell>
        <mxCell id="ZkyLK1sEt4H9wOnHN_3Q-60" value="" style="edgeStyle=orthogonalEdgeStyle;html=1;verticalAlign=bottom;endArrow=open;endSize=8;strokeColor=#000000;rounded=0;" parent="1" edge="1">
          <mxGeometry relative="1" as="geometry">
            <mxPoint x="919.29" y="2026.67" as="targetPoint" />
            <mxPoint x="919" y="1915" as="sourcePoint" />
            <Array as="points">
              <mxPoint x="919" y="1970" />
              <mxPoint x="919" y="1970" />
            </Array>
          </mxGeometry>
        </mxCell>
        <mxCell id="ZkyLK1sEt4H9wOnHN_3Q-61" value="Adjust BMU" style="rounded=1;whiteSpace=wrap;html=1;arcSize=40;fontColor=#000000;fillColor=#FFFFFF;strokeColor=#000000;" parent="1" vertex="1">
          <mxGeometry x="840" y="2030" width="160" height="40" as="geometry" />
        </mxCell>
        <mxCell id="ZkyLK1sEt4H9wOnHN_3Q-62" value="Adjust neighbourhood" style="rounded=1;whiteSpace=wrap;html=1;arcSize=40;fontColor=#000000;fillColor=#FFFFFF;strokeColor=#000000;" parent="1" vertex="1">
          <mxGeometry x="1175" y="2030" width="160" height="40" as="geometry" />
        </mxCell>
        <mxCell id="ZkyLK1sEt4H9wOnHN_3Q-63" value="" style="edgeStyle=orthogonalEdgeStyle;html=1;verticalAlign=bottom;endArrow=open;endSize=8;strokeColor=#000000;rounded=0;exitX=1;exitY=0.5;exitDx=0;exitDy=0;entryX=0;entryY=0.5;entryDx=0;entryDy=0;" parent="1" source="ZkyLK1sEt4H9wOnHN_3Q-61" target="ZkyLK1sEt4H9wOnHN_3Q-62" edge="1">
          <mxGeometry relative="1" as="geometry">
            <mxPoint x="919.29" y="2181.67" as="targetPoint" />
            <mxPoint x="919.29" y="2070" as="sourcePoint" />
            <Array as="points" />
          </mxGeometry>
        </mxCell>
        <mxCell id="ZkyLK1sEt4H9wOnHN_3Q-64" value="" style="edgeStyle=orthogonalEdgeStyle;html=1;verticalAlign=bottom;endArrow=open;endSize=8;strokeColor=#000000;rounded=0;" parent="1" edge="1">
          <mxGeometry relative="1" as="geometry">
            <mxPoint x="1250" y="2181.67" as="targetPoint" />
            <mxPoint x="1250" y="2070" as="sourcePoint" />
            <Array as="points">
              <mxPoint x="1250" y="2160" />
              <mxPoint x="1250" y="2160" />
            </Array>
          </mxGeometry>
        </mxCell>
        <mxCell id="ZkyLK1sEt4H9wOnHN_3Q-65" value="" style="html=1;points=[];perimeter=orthogonalPerimeter;fillColor=#000000;strokeColor=none;direction=north;" parent="1" vertex="1">
          <mxGeometry x="850" y="2180" width="730" height="8.33" as="geometry" />
        </mxCell>
        <mxCell id="ZkyLK1sEt4H9wOnHN_3Q-68" value="" style="edgeStyle=orthogonalEdgeStyle;html=1;verticalAlign=bottom;endArrow=open;endSize=8;strokeColor=#000000;rounded=0;" parent="1" edge="1">
          <mxGeometry relative="1" as="geometry">
            <mxPoint x="939.5" y="2210" as="targetPoint" />
            <mxPoint x="939" y="2181.33" as="sourcePoint" />
            <Array as="points">
              <mxPoint x="939" y="2209.66" />
              <mxPoint x="939" y="2209.66" />
            </Array>
          </mxGeometry>
        </mxCell>
        <mxCell id="ZkyLK1sEt4H9wOnHN_3Q-70" value="" style="endArrow=none;dashed=1;html=1;dashPattern=1 3;strokeWidth=2;rounded=0;" parent="1" edge="1">
          <mxGeometry width="50" height="50" relative="1" as="geometry">
            <mxPoint x="1250" y="2231" as="sourcePoint" />
            <mxPoint x="1420" y="2230.5" as="targetPoint" />
          </mxGeometry>
        </mxCell>
        <mxCell id="ZkyLK1sEt4H9wOnHN_3Q-76" value="" style="html=1;points=[];perimeter=orthogonalPerimeter;fillColor=#000000;strokeColor=none;direction=north;" parent="1" vertex="1">
          <mxGeometry x="850" y="2290" width="730" height="8.33" as="geometry" />
        </mxCell>
        <mxCell id="ZkyLK1sEt4H9wOnHN_3Q-77" value="" style="edgeStyle=orthogonalEdgeStyle;html=1;verticalAlign=bottom;endArrow=open;endSize=8;strokeColor=#000000;rounded=0;" parent="1" edge="1">
          <mxGeometry relative="1" as="geometry">
            <mxPoint x="1250" y="2410" as="targetPoint" />
            <mxPoint x="1250" y="2298.33" as="sourcePoint" />
            <Array as="points">
              <mxPoint x="1250" y="2388.33" />
              <mxPoint x="1250" y="2388.33" />
            </Array>
          </mxGeometry>
        </mxCell>
        <mxCell id="ZkyLK1sEt4H9wOnHN_3Q-78" value="Receive confirmation neighbourhood Node weights are adjusted" style="rounded=1;whiteSpace=wrap;html=1;arcSize=40;fontColor=#000000;fillColor=#FFFFFF;strokeColor=#000000;" parent="1" vertex="1">
          <mxGeometry x="1080" y="2410" width="350" height="40" as="geometry" />
        </mxCell>
        <mxCell id="ZkyLK1sEt4H9wOnHN_3Q-79" value="" style="edgeStyle=orthogonalEdgeStyle;html=1;verticalAlign=bottom;endArrow=open;endSize=8;strokeColor=#000000;rounded=0;" parent="1" edge="1">
          <mxGeometry relative="1" as="geometry">
            <mxPoint x="1250" y="2561.67" as="targetPoint" />
            <mxPoint x="1250" y="2450" as="sourcePoint" />
            <Array as="points">
              <mxPoint x="1250.42" y="2470" />
              <mxPoint x="1250.42" y="2470" />
            </Array>
          </mxGeometry>
        </mxCell>
        <mxCell id="ZkyLK1sEt4H9wOnHN_3Q-80" value="" style="rhombus;whiteSpace=wrap;html=1;" parent="1" vertex="1">
          <mxGeometry x="1210" y="2560" width="80" height="80" as="geometry" />
        </mxCell>
        <mxCell id="ZkyLK1sEt4H9wOnHN_3Q-81" value="" style="edgeStyle=orthogonalEdgeStyle;html=1;verticalAlign=bottom;endArrow=open;endSize=8;strokeColor=#000000;rounded=0;entryX=1;entryY=0.5;entryDx=0;entryDy=0;" parent="1" edge="1" target="ZkyLK1sEt4H9wOnHN_3Q-87">
          <mxGeometry relative="1" as="geometry">
            <mxPoint x="1250" y="2751.67" as="targetPoint" />
            <mxPoint x="1250" y="2640" as="sourcePoint" />
            <Array as="points">
              <mxPoint x="1250" y="2775" />
            </Array>
          </mxGeometry>
        </mxCell>
        <mxCell id="ZkyLK1sEt4H9wOnHN_3Q-84" value="" style="edgeStyle=orthogonalEdgeStyle;html=1;verticalAlign=bottom;endArrow=open;endSize=8;strokeColor=#000000;rounded=0;entryX=1;entryY=0.5;entryDx=0;entryDy=0;exitX=1;exitY=0.5;exitDx=0;exitDy=0;" parent="1" edge="1" source="ZkyLK1sEt4H9wOnHN_3Q-80">
          <mxGeometry relative="1" as="geometry">
            <mxPoint x="1429.9999999999995" y="2430" as="targetPoint" />
            <mxPoint x="1480" y="2580" as="sourcePoint" />
            <Array as="points">
              <mxPoint x="1480" y="2600" />
              <mxPoint x="1480" y="2430" />
            </Array>
          </mxGeometry>
        </mxCell>
        <mxCell id="ZkyLK1sEt4H9wOnHN_3Q-87" value="" style="rhombus;whiteSpace=wrap;html=1;" parent="1" vertex="1">
          <mxGeometry x="910" y="2735" width="80" height="80" as="geometry" />
        </mxCell>
        <mxCell id="ZkyLK1sEt4H9wOnHN_3Q-90" value="" style="edgeStyle=orthogonalEdgeStyle;html=1;verticalAlign=bottom;endArrow=open;endSize=8;strokeColor=#000000;rounded=0;" parent="1" edge="1">
          <mxGeometry relative="1" as="geometry">
            <mxPoint x="950" y="2926.67" as="targetPoint" />
            <mxPoint x="950" y="2815" as="sourcePoint" />
            <Array as="points">
              <mxPoint x="950.4200000000001" y="2835" />
              <mxPoint x="950.4200000000001" y="2835" />
            </Array>
          </mxGeometry>
        </mxCell>
        <mxCell id="ZkyLK1sEt4H9wOnHN_3Q-92" value="" style="ellipse;html=1;shape=endState;fillColor=#000000;strokeColor=#ff0000;" parent="1" vertex="1">
          <mxGeometry x="1245" y="2940" width="30" height="30" as="geometry" />
        </mxCell>
        <mxCell id="ZkyLK1sEt4H9wOnHN_3Q-93" value="" style="edgeStyle=orthogonalEdgeStyle;html=1;verticalAlign=bottom;endArrow=open;endSize=8;strokeColor=#000000;rounded=0;entryX=0;entryY=0.5;entryDx=0;entryDy=0;exitX=1;exitY=0.5;exitDx=0;exitDy=0;" parent="1" target="ZkyLK1sEt4H9wOnHN_3Q-92" edge="1">
          <mxGeometry relative="1" as="geometry">
            <mxPoint x="1130" y="2954.4099999999994" as="targetPoint" />
            <mxPoint x="1005" y="2954.4099999999994" as="sourcePoint" />
            <Array as="points" />
          </mxGeometry>
        </mxCell>
        <mxCell id="ZkyLK1sEt4H9wOnHN_3Q-94" value="" style="edgeStyle=orthogonalEdgeStyle;html=1;verticalAlign=bottom;endArrow=open;endSize=8;strokeColor=#000000;rounded=0;" parent="1" edge="1">
          <mxGeometry relative="1" as="geometry">
            <mxPoint x="190" y="165" as="targetPoint" />
            <mxPoint x="745" y="2735" as="sourcePoint" />
            <Array as="points">
              <mxPoint x="40" y="2587" />
            </Array>
          </mxGeometry>
        </mxCell>
        <mxCell id="ZkyLK1sEt4H9wOnHN_3Q-97" value="&lt;b&gt;Find next feature vector&lt;/b&gt;" style="rounded=1;whiteSpace=wrap;html=1;arcSize=40;fontColor=#000000;fillColor=#FFFFFF;strokeColor=#000000;" parent="1" vertex="1">
          <mxGeometry x="190" y="150" width="160" height="40" as="geometry" />
        </mxCell>
        <mxCell id="ZkyLK1sEt4H9wOnHN_3Q-98" value="" style="edgeStyle=orthogonalEdgeStyle;html=1;verticalAlign=bottom;endArrow=open;endSize=8;strokeColor=#000000;rounded=0;exitX=0.844;exitY=-0.061;exitDx=0;exitDy=0;exitPerimeter=0;" parent="1" edge="1" source="ZkyLK1sEt4H9wOnHN_3Q-97">
          <mxGeometry relative="1" as="geometry">
            <mxPoint x="675.87" y="85" as="targetPoint" />
            <mxPoint x="380" y="162.7099999999999" as="sourcePoint" />
            <Array as="points">
              <mxPoint x="325" y="150" />
              <mxPoint x="676" y="150" />
            </Array>
          </mxGeometry>
        </mxCell>
        <mxCell id="ZkyLK1sEt4H9wOnHN_3Q-100" value="Find node neighbourhood" style="rounded=1;whiteSpace=wrap;html=1;arcSize=40;fontColor=#000000;fillColor=#FFFFFF;strokeColor=#000000;" parent="1" vertex="1">
          <mxGeometry x="840" y="1730" width="160" height="40" as="geometry" />
        </mxCell>
        <mxCell id="ZkyLK1sEt4H9wOnHN_3Q-101" value="" style="edgeStyle=orthogonalEdgeStyle;html=1;verticalAlign=bottom;endArrow=open;endSize=8;strokeColor=#000000;rounded=0;" parent="1" edge="1">
          <mxGeometry relative="1" as="geometry">
            <mxPoint x="919.29" y="1881.67" as="targetPoint" />
            <mxPoint x="919.29" y="1770" as="sourcePoint" />
            <Array as="points">
              <mxPoint x="919.71" y="1790" />
              <mxPoint x="919.71" y="1790" />
            </Array>
          </mxGeometry>
        </mxCell>
        <mxCell id="ZkyLK1sEt4H9wOnHN_3Q-103" value="&lt;span style=&quot;&quot;&gt;[ All distances not yet returned]&lt;/span&gt;" style="text;html=1;strokeColor=none;fillColor=none;align=center;verticalAlign=middle;whiteSpace=wrap;rounded=0;labelBackgroundColor=#FFFFFF;" parent="1" vertex="1">
          <mxGeometry x="480" y="570" width="180" height="30" as="geometry" />
        </mxCell>
        <mxCell id="R9mxItDzNMSXBVZuEwp5-5" value="" style="edgeStyle=orthogonalEdgeStyle;html=1;verticalAlign=bottom;endArrow=open;endSize=8;strokeColor=#000000;rounded=0;entryX=0.306;entryY=0;entryDx=0;entryDy=0;entryPerimeter=0;exitX=0.743;exitY=0.167;exitDx=0;exitDy=0;exitPerimeter=0;" edge="1" parent="1" source="_sdeYMEwhturCp9GIaWW-1">
          <mxGeometry relative="1" as="geometry">
            <mxPoint x="239.9999999999999" y="300" as="targetPoint" />
            <mxPoint x="240.06000000000006" y="250.02599999999995" as="sourcePoint" />
            <Array as="points">
              <mxPoint x="240" y="232" />
            </Array>
          </mxGeometry>
        </mxCell>
        <mxCell id="R9mxItDzNMSXBVZuEwp5-7" value="&lt;span&gt;[All distances returned]&lt;/span&gt;" style="text;html=1;strokeColor=none;fillColor=none;align=center;verticalAlign=middle;whiteSpace=wrap;rounded=0;labelBackgroundColor=#FFFFFF;" vertex="1" parent="1">
          <mxGeometry x="222.5" y="570" width="180" height="30" as="geometry" />
        </mxCell>
        <mxCell id="R9mxItDzNMSXBVZuEwp5-9" value="" style="edgeStyle=orthogonalEdgeStyle;html=1;verticalAlign=bottom;endArrow=open;endSize=8;strokeColor=#000000;rounded=0;entryX=1;entryY=0.099;entryDx=0;entryDy=0;entryPerimeter=0;" edge="1" parent="1" target="ZkyLK1sEt4H9wOnHN_3Q-42">
          <mxGeometry relative="1" as="geometry">
            <mxPoint x="949.5" y="1423" as="targetPoint" />
            <mxPoint x="949.5" y="1393" as="sourcePoint" />
            <Array as="points" />
          </mxGeometry>
        </mxCell>
        <mxCell id="R9mxItDzNMSXBVZuEwp5-12" value="" style="edgeStyle=orthogonalEdgeStyle;html=1;verticalAlign=bottom;endArrow=open;endSize=8;strokeColor=#000000;rounded=0;exitX=0.5;exitY=1;exitDx=0;exitDy=0;" edge="1" parent="1">
          <mxGeometry relative="1" as="geometry">
            <mxPoint x="1159.5" y="1427.7" as="targetPoint" />
            <mxPoint x="1160" y="1405.9999999999998" as="sourcePoint" />
            <Array as="points">
              <mxPoint x="1160" y="1417" />
            </Array>
          </mxGeometry>
        </mxCell>
        <mxCell id="R9mxItDzNMSXBVZuEwp5-13" value="" style="edgeStyle=orthogonalEdgeStyle;html=1;verticalAlign=bottom;endArrow=open;endSize=8;strokeColor=#000000;rounded=0;" edge="1" parent="1">
          <mxGeometry relative="1" as="geometry">
            <mxPoint x="1489" y="1339.83" as="targetPoint" />
            <mxPoint x="1489" y="1319.83" as="sourcePoint" />
            <Array as="points">
              <mxPoint x="1489.14" y="1318.2799999999997" />
              <mxPoint x="1489.14" y="1318.2799999999997" />
            </Array>
          </mxGeometry>
        </mxCell>
        <mxCell id="R9mxItDzNMSXBVZuEwp5-14" value="&lt;span style=&quot;&quot;&gt;[ All distances not yet returned]&lt;/span&gt;" style="text;html=1;strokeColor=none;fillColor=none;align=center;verticalAlign=middle;whiteSpace=wrap;rounded=0;labelBackgroundColor=#FFFFFF;" vertex="1" parent="1">
          <mxGeometry x="1320" y="1735" width="180" height="30" as="geometry" />
        </mxCell>
        <mxCell id="R9mxItDzNMSXBVZuEwp5-15" value="&lt;span&gt;[All distances returned]&lt;/span&gt;" style="text;html=1;strokeColor=none;fillColor=none;align=center;verticalAlign=middle;whiteSpace=wrap;rounded=0;labelBackgroundColor=#FFFFFF;" vertex="1" parent="1">
          <mxGeometry x="1025" y="1760" width="180" height="30" as="geometry" />
        </mxCell>
        <mxCell id="R9mxItDzNMSXBVZuEwp5-17" value="" style="edgeStyle=orthogonalEdgeStyle;html=1;verticalAlign=bottom;endArrow=open;endSize=8;strokeColor=#000000;rounded=0;" edge="1" parent="1">
          <mxGeometry relative="1" as="geometry">
            <mxPoint x="939.5" y="2290" as="targetPoint" />
            <mxPoint x="939.5" y="2261.33" as="sourcePoint" />
            <Array as="points">
              <mxPoint x="940" y="2261.67" />
              <mxPoint x="940" y="2261.67" />
            </Array>
          </mxGeometry>
        </mxCell>
        <mxCell id="R9mxItDzNMSXBVZuEwp5-18" value="" style="edgeStyle=orthogonalEdgeStyle;html=1;verticalAlign=bottom;endArrow=open;endSize=8;strokeColor=#000000;rounded=0;" edge="1" parent="1">
          <mxGeometry relative="1" as="geometry">
            <mxPoint x="1159.5" y="2210" as="targetPoint" />
            <mxPoint x="1159.5" y="2181.33" as="sourcePoint" />
            <Array as="points">
              <mxPoint x="1159" y="2209.66" />
              <mxPoint x="1159" y="2209.66" />
            </Array>
          </mxGeometry>
        </mxCell>
        <mxCell id="R9mxItDzNMSXBVZuEwp5-19" value="" style="edgeStyle=orthogonalEdgeStyle;html=1;verticalAlign=bottom;endArrow=open;endSize=8;strokeColor=#000000;rounded=0;" edge="1" parent="1">
          <mxGeometry relative="1" as="geometry">
            <mxPoint x="1159.5" y="2288.67" as="targetPoint" />
            <mxPoint x="1159.5" y="2260" as="sourcePoint" />
            <Array as="points">
              <mxPoint x="1159" y="2288.33" />
              <mxPoint x="1159" y="2288.33" />
            </Array>
          </mxGeometry>
        </mxCell>
        <mxCell id="R9mxItDzNMSXBVZuEwp5-20" value="" style="edgeStyle=orthogonalEdgeStyle;html=1;verticalAlign=bottom;endArrow=open;endSize=8;strokeColor=#000000;rounded=0;" edge="1" parent="1">
          <mxGeometry relative="1" as="geometry">
            <mxPoint x="1519" y="2210" as="targetPoint" />
            <mxPoint x="1519" y="2181.33" as="sourcePoint" />
            <Array as="points">
              <mxPoint x="1518.5" y="2209.66" />
              <mxPoint x="1518.5" y="2209.66" />
            </Array>
          </mxGeometry>
        </mxCell>
        <mxCell id="R9mxItDzNMSXBVZuEwp5-21" value="" style="edgeStyle=orthogonalEdgeStyle;html=1;verticalAlign=bottom;endArrow=open;endSize=8;strokeColor=#000000;rounded=0;entryX=1.096;entryY=0.916;entryDx=0;entryDy=0;entryPerimeter=0;" edge="1" parent="1" target="ZkyLK1sEt4H9wOnHN_3Q-76">
          <mxGeometry relative="1" as="geometry">
            <mxPoint x="1519" y="2278.67" as="targetPoint" />
            <mxPoint x="1519" y="2260" as="sourcePoint" />
            <Array as="points" />
          </mxGeometry>
        </mxCell>
        <mxCell id="R9mxItDzNMSXBVZuEwp5-22" value="[All nodes in neighbourhood not confirmed that weights are adjusted]" style="text;html=1;strokeColor=none;fillColor=none;align=center;verticalAlign=middle;whiteSpace=wrap;rounded=0;labelBackgroundColor=#FFFFFF;" vertex="1" parent="1">
          <mxGeometry x="1320" y="2620" width="180" height="30" as="geometry" />
        </mxCell>
        <mxCell id="R9mxItDzNMSXBVZuEwp5-23" value="[All nodes in neighbourhood not confirmed that weights are adjusted]" style="text;html=1;strokeColor=none;fillColor=none;align=center;verticalAlign=middle;whiteSpace=wrap;rounded=0;labelBackgroundColor=#FFFFFF;" vertex="1" parent="1">
          <mxGeometry x="1052.5" y="2720" width="180" height="30" as="geometry" />
        </mxCell>
        <mxCell id="R9mxItDzNMSXBVZuEwp5-24" value="[Termination not criteria reached]" style="text;html=1;strokeColor=none;fillColor=none;align=center;verticalAlign=middle;whiteSpace=wrap;rounded=0;labelBackgroundColor=#FFFFFF;" vertex="1" parent="1">
          <mxGeometry x="632.5" y="2540" width="180" height="30" as="geometry" />
        </mxCell>
        <mxCell id="R9mxItDzNMSXBVZuEwp5-25" value="[Termination criteria reached]" style="text;html=1;strokeColor=none;fillColor=none;align=center;verticalAlign=middle;whiteSpace=wrap;rounded=0;labelBackgroundColor=#FFFFFF;" vertex="1" parent="1">
          <mxGeometry x="820" y="2940" width="180" height="30" as="geometry" />
        </mxCell>
        <mxCell id="R9mxItDzNMSXBVZuEwp5-26" value="&lt;b&gt;Spawn node Actors&lt;/b&gt;" style="rounded=1;whiteSpace=wrap;html=1;arcSize=40;fontColor=#000000;fillColor=#FFFFFF;strokeColor=#000000;" vertex="1" parent="1">
          <mxGeometry x="150" y="45" width="130" height="40" as="geometry" />
        </mxCell>
        <mxCell id="R9mxItDzNMSXBVZuEwp5-27" value="&lt;b&gt;Create data actor&lt;/b&gt;" style="rounded=1;whiteSpace=wrap;html=1;arcSize=40;fontColor=#000000;fillColor=#FFFFFF;strokeColor=#000000;" vertex="1" parent="1">
          <mxGeometry x="380" y="45" width="160" height="40" as="geometry" />
        </mxCell>
        <mxCell id="R9mxItDzNMSXBVZuEwp5-28" value="&lt;b&gt;Send features to node actors&lt;/b&gt;" style="rounded=1;whiteSpace=wrap;html=1;arcSize=40;fontColor=#000000;fillColor=#FFFFFF;strokeColor=#000000;" vertex="1" parent="1">
          <mxGeometry x="632.5" y="45" width="157.5" height="40" as="geometry" />
        </mxCell>
        <mxCell id="R9mxItDzNMSXBVZuEwp5-29" value="Receive distances from node actors" style="rounded=1;whiteSpace=wrap;html=1;arcSize=40;fontColor=#000000;fillColor=#FFFFFF;strokeColor=#000000;" vertex="1" parent="1">
          <mxGeometry x="222.5" y="460" width="410" height="40" as="geometry" />
        </mxCell>
        <mxCell id="R9mxItDzNMSXBVZuEwp5-30" value="&lt;b&gt;&lt;span style=&quot;text-align: left&quot;&gt;Node 1 : Calculate&lt;/span&gt;&lt;br style=&quot;text-align: left&quot;&gt;&lt;span style=&quot;text-align: left&quot;&gt;distance from input vector&lt;/span&gt;&lt;/b&gt;" style="rounded=1;whiteSpace=wrap;html=1;arcSize=40;fontColor=#000000;fillColor=#FFFFFF;strokeColor=#000000;" vertex="1" parent="1">
          <mxGeometry x="140" y="300" width="167.5" height="40" as="geometry" />
        </mxCell>
        <mxCell id="R9mxItDzNMSXBVZuEwp5-31" value="&lt;b&gt;&lt;span style=&quot;text-align: left&quot;&gt;Node 2 : Calculate&lt;/span&gt;&lt;br style=&quot;text-align: left&quot;&gt;&lt;span style=&quot;text-align: left&quot;&gt;distance from input vector&lt;/span&gt;&lt;/b&gt;" style="rounded=1;whiteSpace=wrap;html=1;arcSize=40;fontColor=#000000;fillColor=#FFFFFF;strokeColor=#000000;" vertex="1" parent="1">
          <mxGeometry x="341" y="300" width="167.5" height="40" as="geometry" />
        </mxCell>
        <mxCell id="R9mxItDzNMSXBVZuEwp5-32" value="&lt;b&gt;&lt;span style=&quot;text-align: left&quot;&gt;Node (n) : Calculate&lt;/span&gt;&lt;br style=&quot;text-align: left&quot;&gt;&lt;span style=&quot;text-align: left&quot;&gt;distance from input vector&lt;/span&gt;&lt;/b&gt;" style="rounded=1;whiteSpace=wrap;html=1;arcSize=40;fontColor=#000000;fillColor=#FFFFFF;strokeColor=#000000;" vertex="1" parent="1">
          <mxGeometry x="660" y="300" width="150" height="50" as="geometry" />
        </mxCell>
        <mxCell id="R9mxItDzNMSXBVZuEwp5-33" value="&lt;span style=&quot;text-align: left&quot;&gt;Node 1 : Calculate&lt;/span&gt;&lt;br style=&quot;text-align: left&quot;&gt;&lt;span style=&quot;text-align: left&quot;&gt;distance from input vector&lt;/span&gt;" style="rounded=1;whiteSpace=wrap;html=1;arcSize=40;fontColor=#000000;fillColor=#FFFFFF;strokeColor=#000000;" vertex="1" parent="1">
          <mxGeometry x="870" y="1350" width="167.5" height="40" as="geometry" />
        </mxCell>
        <mxCell id="R9mxItDzNMSXBVZuEwp5-34" value="&lt;span style=&quot;text-align: left&quot;&gt;Node 2 : Calculate&lt;/span&gt;&lt;br style=&quot;text-align: left&quot;&gt;&lt;span style=&quot;text-align: left&quot;&gt;distance from input vector&lt;/span&gt;" style="rounded=1;whiteSpace=wrap;html=1;arcSize=40;fontColor=#000000;fillColor=#FFFFFF;strokeColor=#000000;" vertex="1" parent="1">
          <mxGeometry x="1077.5" y="1350" width="167.5" height="40" as="geometry" />
        </mxCell>
        <mxCell id="R9mxItDzNMSXBVZuEwp5-35" value="&lt;span style=&quot;text-align: left&quot;&gt;Node (n) : Calculate&lt;/span&gt;&lt;br style=&quot;text-align: left&quot;&gt;&lt;span style=&quot;text-align: left&quot;&gt;distance from input vector&lt;/span&gt;" style="rounded=1;whiteSpace=wrap;html=1;arcSize=40;fontColor=#000000;fillColor=#FFFFFF;strokeColor=#000000;" vertex="1" parent="1">
          <mxGeometry x="1440" y="1350" width="150" height="40" as="geometry" />
        </mxCell>
        <mxCell id="R9mxItDzNMSXBVZuEwp5-36" value="&lt;span style=&quot;text-align: left&quot;&gt;Node 1 : Adjust weights&lt;/span&gt;" style="rounded=1;whiteSpace=wrap;html=1;arcSize=40;fontColor=#000000;fillColor=#FFFFFF;strokeColor=#000000;" vertex="1" parent="1">
          <mxGeometry x="857.5" y="2215" width="167.5" height="40" as="geometry" />
        </mxCell>
        <mxCell id="R9mxItDzNMSXBVZuEwp5-37" value="&lt;span style=&quot;text-align: left&quot;&gt;Node 2 : Adjust weights&lt;/span&gt;" style="rounded=1;whiteSpace=wrap;html=1;arcSize=40;fontColor=#000000;fillColor=#FFFFFF;strokeColor=#000000;" vertex="1" parent="1">
          <mxGeometry x="1080" y="2215" width="167.5" height="40" as="geometry" />
        </mxCell>
        <mxCell id="R9mxItDzNMSXBVZuEwp5-38" value="&lt;span style=&quot;text-align: left&quot;&gt;Node (n) : Adjust weights&lt;/span&gt;" style="rounded=1;whiteSpace=wrap;html=1;arcSize=40;fontColor=#000000;fillColor=#FFFFFF;strokeColor=#000000;" vertex="1" parent="1">
          <mxGeometry x="1430" y="2215" width="167.5" height="40" as="geometry" />
        </mxCell>
        <mxCell id="R9mxItDzNMSXBVZuEwp5-46" value="" style="edgeStyle=orthogonalEdgeStyle;html=1;verticalAlign=bottom;endArrow=open;endSize=8;strokeColor=#000000;rounded=0;" edge="1" parent="1">
          <mxGeometry relative="1" as="geometry">
            <mxPoint x="400" y="400" as="targetPoint" />
            <mxPoint x="400" y="340" as="sourcePoint" />
            <Array as="points">
              <mxPoint x="400" y="364" />
              <mxPoint x="400" y="364" />
            </Array>
          </mxGeometry>
        </mxCell>
        <mxCell id="R9mxItDzNMSXBVZuEwp5-47" value="" style="edgeStyle=orthogonalEdgeStyle;html=1;verticalAlign=bottom;endArrow=open;endSize=8;strokeColor=#000000;rounded=0;" edge="1" parent="1">
          <mxGeometry relative="1" as="geometry">
            <mxPoint x="730" y="404" as="targetPoint" />
            <mxPoint x="730" y="350" as="sourcePoint" />
            <Array as="points">
              <mxPoint x="730" y="374" />
              <mxPoint x="730" y="374" />
            </Array>
          </mxGeometry>
        </mxCell>
        <mxCell id="R9mxItDzNMSXBVZuEwp5-48" value="" style="edgeStyle=orthogonalEdgeStyle;html=1;verticalAlign=bottom;endArrow=open;endSize=8;strokeColor=#000000;rounded=0;" edge="1" parent="1">
          <mxGeometry relative="1" as="geometry">
            <mxPoint x="740" y="300" as="targetPoint" />
            <mxPoint x="740" y="230" as="sourcePoint" />
            <Array as="points">
              <mxPoint x="740" y="270" />
              <mxPoint x="740" y="270" />
            </Array>
          </mxGeometry>
        </mxCell>
        <mxCell id="R9mxItDzNMSXBVZuEwp5-51" value="" style="edgeStyle=orthogonalEdgeStyle;html=1;verticalAlign=bottom;endArrow=open;endSize=8;strokeColor=#000000;rounded=0;entryX=0.53;entryY=0;entryDx=0;entryDy=0;entryPerimeter=0;" edge="1" parent="1" target="R9mxItDzNMSXBVZuEwp5-29">
          <mxGeometry relative="1" as="geometry">
            <mxPoint x="440" y="468.33" as="targetPoint" />
            <mxPoint x="440" y="408.33" as="sourcePoint" />
            <Array as="points" />
          </mxGeometry>
        </mxCell>
        <mxCell id="R9mxItDzNMSXBVZuEwp5-56" value="" style="edgeStyle=orthogonalEdgeStyle;html=1;verticalAlign=bottom;endArrow=open;endSize=8;strokeColor=#000000;rounded=0;entryX=0.562;entryY=-0.025;entryDx=0;entryDy=0;entryPerimeter=0;exitX=0.5;exitY=1;exitDx=0;exitDy=0;" edge="1" parent="1" source="ZkyLK1sEt4H9wOnHN_3Q-24" target="ZkyLK1sEt4H9wOnHN_3Q-26">
          <mxGeometry relative="1" as="geometry">
            <mxPoint x="420.25000000000006" y="870" as="targetPoint" />
            <mxPoint x="640" y="740" as="sourcePoint" />
            <Array as="points">
              <mxPoint x="170" y="660" />
              <mxPoint x="170" y="660" />
            </Array>
          </mxGeometry>
        </mxCell>
      </root>
    </mxGraphModel>
  </diagram>
</mxfile>
